<svg width="193" height="19" viewBox="0 0 193 19" xmlns="http://www.w3.org/2000/svg"><g transform="translate(-191 1)" fill="none" fill-rule="evenodd"><path fill="#D5C1B4" d="M.5 8h375v1H.5z"/><path d="M383 11h0a10.017 10.017 0 01-1.86 3.123 8.715 8.715 0 01-2.76 2.106 7.807 7.807 0 01-3.378.771H375a7.816 7.816 0 01-3.38-.771 8.715 8.715 0 01-2.76-2.106A10.017 10.017 0 01367 11m0-5h0a9.999 9.999 0 011.86-3.122 8.682 8.682 0 012.76-2.106 7.784 7.784 0 016.76 0 8.682 8.682 0 012.76 2.106A9.999 9.999 0 01383 6" stroke="#D5C1B4"/><circle fill="#000" cx="375" cy="8.5" r="2.5"/></g></svg>