<svg width="19" height="50" viewBox="0 0 19 50" xmlns="http://www.w3.org/2000/svg"><g fill="none" fill-rule="evenodd"><path fill="#D5C1B4" d="M10 0v42H9V0z"/><g transform="rotate(90 -7.75 25.75)"><path d="M16 11h0a10.017 10.017 0 01-1.86 3.123 8.715 8.715 0 01-2.76 2.106A7.807 7.807 0 018.001 17H8a7.816 7.816 0 01-3.38-.771 8.715 8.715 0 01-2.76-2.106A10.017 10.017 0 010 11m0-5h0a9.999 9.999 0 011.86-3.122A8.682 8.682 0 014.62.772a7.784 7.784 0 016.76 0 8.682 8.682 0 012.76 2.106A9.999 9.999 0 0116 6" stroke="#D5C1B4"/><circle fill="#000" cx="8" cy="8.5" r="2.5"/></g></g></svg>