<svg version="1.1" id="body_1" xmlns="http://www.w3.org/2000/svg" xmlns:xlink="http://www.w3.org/1999/xlink" x="0px" y="0px" viewBox="0 0 540 284" xml:space="preserve" style="display: block; width: 100%;"><g transform="matrix(1.3333333 0 0 1.3333333 0 0)"><g><defs><polygon id="SVGID_1_" points="0,192 0,0 0,0 352.5,0 352.5,0 352.5,192 352.5,192 			"></polygon></defs> <clipPath id="SVGID_2_"><use xlink:href="#SVGID_1_" style="overflow: visible;"></use></clipPath> <g class="st0"><path id="_x31_" d="M164.6,103.1L164.6,103.1L164.6,103.1v-2.4l0,0H162l0,0l0,0c-2.1,0-4.3,0.7-4.3,3.4l0,0l0,0
													c0,2.3,1.4,3.4,3.1,3.4l0,0l0,0C162.9,107.5,164.6,105.6,164.6,103.1L164.6,103.1L164.6,103.1z M153.4,104.7
													c0-5.1,4.6-6.9,8.3-6.9l0,0h3l0,0v-2.9l0,0l0,0c0-2-1.3-3-3.3-3l0,0l0,0c-2,0-3.4,1.1-3.4,2.9l0,0v1.1l0,0H154l0,0v-1.3l0,0l0,0
													c0-3.8,3.4-5.9,7.7-5.9l0,0l0,0c4,0,7.3,1.9,7.3,6.2l0,0v10.3c0,1.8,0.2,4.3,0.2,5.1l0,0h-4c0-0.4-0.1-1.5-0.2-3l0,0h-0.2
													c-1.3,2.9-4.1,3.5-5.8,3.5l0,0l0,0C156.1,110.8,153.4,108.9,153.4,104.7z"></path> <path id="_x32_" d="M178.8,103.2L178.8,103.2L178.8,103.2v-6.7l0,0l0,0c0-5.2,3.5-7.8,7.8-7.8l0,0l0,0c4.5,0,7.4,2.5,7.4,6.4l0,0
													v1.2l0,0h-4l0,0v-0.9l0,0l0,0c0-1.5-0.8-3.2-3.3-3.2l0,0l0,0c-2.6,0-3.6,1.7-3.6,4l0,0v7.1c0,2.4,1.1,4,3.7,4l0,0l0,0
													c2.6,0,3.2-2,3.2-3.4l0,0v-0.8l0,0h4l0,0v1.3l0,0l0,0c0,3.8-3,6.4-7.4,6.4l0,0l0,0C182.1,110.9,178.8,108.5,178.8,103.2z"></path> <path id="_x33_" d="M214.5,103.2L214.5,103.2L214.5,103.2v-6.9l0,0l0,0c0-2.3-1.1-4.1-3.7-4.1l0,0l0,0c-2.6,0-3.6,1.9-3.6,4.2
													l0,0v6.8c0,2.4,1.1,4.1,3.7,4.1l0,0l0,0C213.6,107.4,214.5,105.6,214.5,103.2L214.5,103.2L214.5,103.2z M202.9,103.1L202.9,103.1
													L202.9,103.1v-6.5l0,0l0,0c0-5.2,3.5-7.9,7.9-7.9l0,0l0,0c4.4,0,8,2.4,8,7.8l0,0v6.5c0,5.4-3.7,7.8-8,7.8l0,0l0,0
													C206.5,110.9,202.9,108.5,202.9,103.1z"></path> <path id="_x34_" d="M228.6,105.1L228.6,105.1L228.6,105.1V89.2l0,0h4.3l0,0v14.7l0,0l0,0c0,2.2,0.7,3.5,2.8,3.5l0,0l0,0
													c2.3,0,4.3-2.2,4.3-5l0,0V89.2l0,0h4.3l0,0v21.2l0,0h-4l0,0l-0.1-3.4l0,0h-0.1l0,0l0,0c-1.1,2.4-3.4,3.9-5.9,3.9l0,0l0,0
													c-1.5,0.1-3-0.5-4-1.6l0,0l0,0C229.1,108.1,228.6,106.6,228.6,105.1L228.6,105.1L228.6,105.1z"></path> <path id="_x35_" d="M253.1,107.8L253.1,107.8L253.1,107.8l2.3-3l0,0l0,0c1.5,1.3,3.5,2.5,5.6,2.5l0,0l0,0c2.2,0,3.4-1,3.4-2.6
													l0,0l0,0c0-1.8-1.5-2.5-3.3-3.1l0,0l-2-0.7c-3.3-1.1-4.8-3.2-4.8-6l0,0l0,0c0-3,2.2-6.3,6.9-6.3l0,0l0,0c2.4-0.1,4.8,0.8,6.6,2.4
													l0,0l-2,3c-1.3-1.1-2.9-1.8-4.6-1.9l0,0l0,0c-1.8,0-2.9,0.8-2.9,2.1l0,0l0,0c0,1.5,0.7,2.1,2.5,2.7l0,0l2.6,0.9
													c3.3,1.2,5.1,3.5,5.1,6.4l0,0l0,0c0,4-3.5,6.5-7.6,6.5l0,0l0,0C257.8,110.9,255,109.8,253.1,107.8z"></path> <path id="_x36_" d="M278.9,106.1L278.9,106.1L278.9,106.1V92.9l0,0h-3l0,0v-3.5l0,0h3l0,0v-5.7l0,0h4.3l0,0v5.7l0,0h4.9l0,0v3.5
													l0,0h-4.9l0,0v11.7l0,0l0,0c0,1.4,0.6,2.1,2.2,2.1l0,0l0,0c0.8,0,1.5-0.1,2.2-0.4l0,0v3.6c-1.2,0.5-2.5,0.7-3.8,0.7l0,0l0,0
													C281.5,110.7,278.9,109.8,278.9,106.1z"></path> <path id="_x37_" d="M297,89.2h4.3v21.2H297V89.2z M297,81.3h4.3v5.1H297V81.3z"></path> <path id="_x38_" d="M311.2,103.2L311.2,103.2L311.2,103.2v-6.7l0,0l0,0c0-5.2,3.5-7.8,7.8-7.8l0,0l0,0c4.5,0,7.4,2.5,7.4,6.4l0,0
													v1.2l0,0h-4l0,0v-0.9l0,0l0,0c0-1.5-0.8-3.2-3.3-3.2l0,0l0,0c-2.6,0-3.6,1.7-3.6,4l0,0v7.1c0,2.4,1.1,4,3.7,4l0,0l0,0
													c2.6,0,3.2-2,3.2-3.4l0,0v-0.8l0,0h4l0,0v1.3l0,0l0,0c0,3.8-3,6.4-7.4,6.4l0,0l0,0C314.5,110.9,311.2,108.5,311.2,103.2z"></path> <path id="_x39_" d="M343.4,88.7c1.2,0,1.9-0.6,1.9-1.8l0,0l0,0c0-0.5-0.2-1-0.6-1.3l0,0l0,0c-0.4-0.3-0.9-0.5-1.3-0.5l0,0h-1.5
													l0,0v3.6l0,0H343.4z M339.9,83.4L339.9,83.4L339.9,83.4h3.9l0,0l0,0c2.3,0,3.5,1.4,3.5,3.3l0,0l0,0c0.1,1.5-0.8,2.8-2.2,3.2l0,0
													l2.6,4.4l0,0h-2.1l0,0l-2.3-4.1l0,0h-1.3l0,0v4.1l0,0h-2l0,0V83.4z M350.2,89.1c0-4.8-3.2-7.8-6.9-7.8l0,0l0,0
													c-3.7,0-6.7,2.9-6.7,7.8l0,0l0,0c0,4.8,3.3,7.7,6.7,7.7l0,0l0,0C346.9,96.7,350.2,93.8,350.2,89.1L350.2,89.1L350.2,89.1z
													 M334.8,89.1c0-5.2,3.5-9.2,8.5-9.2l0,0l0,0c5.2,0,8.5,4,8.5,9.2l0,0l0,0c0,5-3.3,9.2-8.6,9.2l0,0l0,0
													C338,98.3,334.8,94.1,334.8,89.1z"></path> <path id="_x31_0" d="M10.6,105.1c2,0,3.3-1.4,3.3-3.6l0,0l0,0c0-2.2-1.5-3.3-3.5-3.3l0,0H6.5l0,0v6.9l0,0H10.6z M10.3,93.2
													c2,0,3.4-1.3,3.4-3.6l0,0l0,0c0-2-1.3-3.1-3.2-3.1l0,0h-4l0,0v6.7l0,0H10.3z M0,81.3L0,81.3L0,81.3h12.5l0,0l0,0
													c4.9,0,7.7,2.9,7.7,7.3l0,0l0,0c0,3.3-1.9,6.1-4.7,6.9l0,0v0.1c3,0.8,5.1,3.6,5,6.8l0,0l0,0c0,4.9-3.1,8-7.8,8l0,0H0l0,0V81.3z"></path> <path id="_x31_1" d="M39,99l-2.8-11.2h-0.1L33.2,99H39z M32.5,81.2h8.1l8.1,29.1H42l-1.6-6.2h-8.5l-1.6,6.2h-6L32.5,81.2z"></path> <path id="_x31_2" d="M51.5,107.3L51.5,107.3L51.5,107.3l3.3-4.7l0,0l0,0c1.8,1.5,3.8,2.9,6.7,2.9l0,0l0,0c2.1,0,3.7-0.9,3.7-2.7
													l0,0l0,0c0-1.8-1.2-2.6-3.3-3.5l0,0l-3.7-1.6c-3.7-1.6-5.7-4-5.7-7.9l0,0l0,0c0-4.8,3.7-8.9,9.7-8.9l0,0l0,0
													c3.2-0.1,6.3,1,8.7,3.2l0,0l-3.4,4.6c-1.6-1.3-3.6-2.7-5.6-2.7l0,0l0,0c-2.1,0-3.1,1-3.1,2.7l0,0l0,0c0,1.7,1.7,2.5,3.8,3.4l0,0
													l2.8,1.3c4.1,1.8,6.4,4.7,6.4,8.3l0,0l0,0c0,6.1-5.1,9.2-10.4,9.2l0,0l0,0C57.7,110.9,54.2,109.9,51.5,107.3z"></path> <path id="_x31_3" d="M75.4,81.3L75.4,81.3L75.4,81.3h6.4l0,0l3.3,17.8l0,0h0.1l0,0l3.6-17.8l0,0H95l0,0L98.5,99l0,0
													h0l0,0l3.3-17.7l0,0h6l0,0l-6.1,29.2l0,0h-6.2l0,0l-3.9-18.8l0,0h-0.2l0,0l-3.9,18.8l0,0h-6.1l0,0L75.4,81.3z" class="st1"></path> <path id="_x31_4" d="M124.3,99l-2.8-11.2h-0.1L118.5,99H124.3z M117.7,81.2h8.1l8.1,29.1h-6.7l-1.6-6.2h-8.5l-1.6,6.2h-6
													L117.7,81.2z"></path> <path id="circle" d="M71.7,127.2L71.7,127.2L71.7,127.2L71.7,127.2L71.7,127.2L71.7,127.2c3.9,9.6,9.6,18.3,16.7,25.6l0,0l0,0
												c7.1,7.4,15.5,13.2,24.7,17.3l0,0l0,0c9.6,4.2,19.9,6.3,30.3,6.3l0,0l0,0c10.4,0,20.7-2.1,30.3-6.3l0,0l0,0
												c9.2-4.1,17.6-9.9,24.7-17.3l0,0l0,0c7.1-7.3,12.8-16,16.7-25.6l0,0l0,0l0,0l13.6,5.9l0,0l0,0l0,0l0,0
												c-4.7,11.4-11.4,21.7-19.8,30.5l0,0l0,0c-8.4,8.7-18.4,15.7-29.4,20.5l0,0l0,0c-11.4,5-23.6,7.5-36,7.5l0,0h0
												c-12.4,0-24.6-2.5-36-7.5l0,0l0,0c-11-4.8-21-11.8-29.4-20.5l0,0l0,0c-8.4-8.7-15.2-19.1-19.8-30.5l0,0l0,0l0,0L71.7,127.2z
												 M215,64.5L215,64.5L215,64.5L215,64.5L215,64.5L215,64.5c-3.9-9.6-9.6-18.3-16.7-25.6l0,0l0,0c-7.1-7.4-15.5-13.2-24.7-17.3l0,0
												l0,0c-9.6-4.2-19.9-6.3-30.3-6.3l0,0l0,0c-10.4,0-20.7,2.1-30.3,6.3l0,0l0,0c-9.2,4.1-17.6,9.9-24.7,17.3l0,0l0,0
												c-7.1,7.3-12.8,16-16.7,25.6l0,0l0,0l0,0l-13.6-5.9l0,0l0,0l0,0l0,0C62.8,47.1,69.5,36.8,78,28.1l0,0l0,0
												c8.4-8.7,18.4-15.7,29.4-20.5l0,0l0,0c11.4-5,23.6-7.5,36-7.5l0,0l0,0c12.4,0,24.6,2.5,36,7.5l0,0l0,0c11,4.8,21,11.8,29.4,20.5
												l0,0l0,0c8.4,8.7,15.2,19.1,19.8,30.5l0,0l0,0l0,0L215,64.5z"></path></g></g></g></svg>